<?xml version="1.0" encoding="UTF-8"?>
<svg id="Layer_2" data-name="Layer 2" xmlns="http://www.w3.org/2000/svg" viewBox="0 0 799.58 317.47">
  <defs>
    <style>
      .cls-1 {
        fill: #fff;
      }
    </style>
  </defs>
  <g id="Layer_1-2" data-name="Layer 1">
    <path class="cls-1" d="M399.79,317.47c-105.3,0-204.46-15.7-279.19-44.22C42.83,243.57,0,202.91,0,158.74S42.83,73.9,120.6,44.22C195.33,15.7,294.48,0,399.79,0c63.72,0,277.59,4.8,354.03,66.55,4.3,3.47,4.97,9.77,1.5,14.06-3.47,4.3-9.77,4.96-14.06,1.5-56.69-45.79-213.56-62.11-341.47-62.11-102.93,0-199.55,15.24-272.06,42.91C59.27,89.03,20,123.96,20,158.74s39.27,69.7,107.73,95.83c72.51,27.67,169.13,42.91,272.06,42.91s199.55-15.24,272.06-42.91c68.46-26.12,107.73-61.05,107.73-95.83,0-2.83-1.65-13.46-22.91-31.34-43.89-36.93-152.8-83.95-247.19-67.58-5.45.94-10.62-2.7-11.56-8.14-.94-5.44,2.7-10.62,8.14-11.56,56.26-9.76,112.06,1.86,148.97,13.33,44.5,13.83,87.32,35.75,114.52,58.65,19.93,16.77,30.03,32.46,30.03,46.64,0,44.17-42.83,84.84-120.6,114.51-74.73,28.52-173.88,44.22-279.19,44.22Z"/>
  </g>
</svg>