<?xml version="1.0" encoding="UTF-8"?>
<svg id="Layer_1" xmlns="http://www.w3.org/2000/svg" version="1.1" viewBox="0 0 288 288">
  <!-- Generator: Adobe Illustrator 29.8.1, SVG Export Plug-In . SVG Version: 2.1.1 Build 2)  -->
  <path d="M144.4,255.7c-60.7,0-110.6-49.4-110.6-110.6s49.4-110.6,110.6-110.6,110.6,49.4,110.6,110.6-49.9,110.6-110.6,110.6ZM144.4,40.4c-58,0-104.7,47.1-104.7,104.7s47.1,104.7,104.7,104.7,104.7-47.1,104.7-104.7-46.7-104.7-104.7-104.7Z" fill="#062d36"/>
  <path d="M185.7,175.5c-1.1,0-2.2-.6-2.8-1.7-8.3-13.3-22.7-21-38.1-21s-29.8,7.7-38.1,21c-1.1,1.7-3.3,2.2-5,1.1-1.7-1.1-2.2-3.3-1.1-5,9.4-14.9,26-24.3,43.7-24.3s34.3,8.8,43.7,24.3c1.1,1.7.6,3.9-1.1,5,0,.6-.6.6-1.1.6Z" fill="#062d36"/>
  <path d="M144.8,198.1c-17.7,0-34.3-8.8-43.7-24.3-5.5-8.3-8.3-17.7-8.3-27.6,0-28.7,23.2-52,52-52s52,23.2,52,52-2.8,19.3-8.3,27.6c-9.4,14.9-26,24.3-43.7,24.3ZM144.8,101.4c-24.9,0-44.8,19.9-44.8,44.8s2.2,17.1,7.2,24.3c8.3,13.3,22.7,21,38.1,21s29.8-7.7,38.1-21c4.4-7.2,7.2-15.5,7.2-24.3-1.1-24.9-21-44.8-45.9-44.8Z" fill="#062d36"/>
  <path d="M144.8,151.1c-11.6,0-21-9.4-21-21s9.4-21,21-21,21,9.4,21,21-9.4,21-21,21ZM144.8,116.3c-7.7,0-13.8,6.1-13.8,13.8s6.1,13.8,13.8,13.8,13.8-6.1,13.8-13.8-6.1-13.8-13.8-13.8Z" fill="#062d36"/>
  <path d="M144.8,57.7c-2,0-3.6-1.6-3.6-3.6V11.3c0-2,1.6-3.6,3.6-3.6s3.6,1.6,3.6,3.6v42.8c0,2-1.6,3.6-3.6,3.6Z" fill="#1bc5d9"/>
  <path d="M144.8,282.4c-2,0-3.6-1.6-3.6-3.6v-42.8c0-2,1.6-3.6,3.6-3.6s3.6,1.6,3.6,3.6v42.8c0,2-1.6,3.6-3.6,3.6Z" fill="#1bc5d9"/>
  <path d="M277.7,148.9h-42.8c-2,0-3.6-1.6-3.6-3.6s1.6-3.6,3.6-3.6h42.8c2,0,3.6,1.6,3.6,3.6s-1.6,3.6-3.6,3.6Z" fill="#1bc5d9"/>
  <path d="M52.9,148.9H10.1c-2,0-3.6-1.6-3.6-3.6s1.6-3.6,3.6-3.6h42.8c2,0,3.6,1.6,3.6,3.6s-1.6,3.6-3.6,3.6Z" fill="#1bc5d9"/>
</svg>