<?xml version="1.0" encoding="UTF-8"?>
<svg id="Layer_1" xmlns="http://www.w3.org/2000/svg" version="1.1" viewBox="0 0 288 288">
  <!-- Generator: Adobe Illustrator 29.8.1, SVG Export Plug-In . SVG Version: 2.1.1 Build 2)  -->
  <g>
    <path d="M261.1,285c-1.6,0-3.1-1.2-3.3-2.9l-7.2-50.1c-1.8-12.5-10.3-23.3-22-28l-49.6-19.9-35.6,28.3c-1.2,1-3,1-4.2,0l-35.6-28.3-49.6,19.9c-11.8,4.7-20.2,15.5-22,28l-7.2,50.1c-.3,1.8-2,3.1-3.8,2.9-1.8-.3-3.1-2-2.9-3.8l7.2-50.1c2.2-14.9,12.2-27.7,26.2-33.3l51.4-20.6c1.1-.5,2.4-.3,3.4.5l35,27.8,35-27.8c.9-.8,2.2-.9,3.4-.5l51.4,20.6c14,5.6,24,18.4,26.2,33.3l7.2,50.1c.3,1.8-1,3.6-2.9,3.8-.2,0-.3,0-.5,0Z" fill="#062d36"/>
    <path d="M141.2,186.4c-11.1,0-21.6-5-29.4-14-7.3-8.4-11.5-19.3-12.1-31.1-9.6-5.1-15-12.4-15-20.4s2.1-9.7,6.1-13.9c-2.2-5.4-3.3-11-3.3-16.8,0-26.8,24.1-48.7,53.7-48.7s53.7,21.8,53.7,48.7-1.1,11.5-3.3,16.8c4,4.1,6.1,8.9,6.1,13.9,0,8-5.4,15.3-15,20.4-.5,11.7-4.8,22.7-12.1,31.1-7.8,9-18.3,14-29.4,14ZM141.2,48.3c-25.9,0-46.9,18.8-46.9,42s1.2,11.1,3.6,16.2c.6,1.4.3,3-.8,4-2.6,2.2-5.6,5.9-5.6,10.5s4.8,11.3,13,15.2c1.2.6,1.9,1.7,1.9,3,.2,22.3,15.8,40.5,34.8,40.5s34.6-18.2,34.8-40.5c0-1.3.8-2.5,1.9-3,8.3-3.9,13-9.5,13-15.2s-3.1-8.3-5.6-10.5c-1.1-1-1.5-2.6-.8-4,2.4-5.1,3.6-10.6,3.6-16.2,0-23.1-21.1-42-46.9-42Z" fill="#062d36"/>
    <path d="M118.3,100.8c-2.1,0-4.2,0-6.3-.1-1.9,0-3.3-1.6-3.2-3.5,0-1.9,1.6-3.3,3.5-3.2,18,.7,35.9-.8,44.2-16.1.6-1.1,1.8-1.8,3.1-1.7,1.3,0,2.4.9,2.9,2,2.3,5.4,5.6,9.7,9.8,12.9,1.5,1.1,1.8,3.2.6,4.7-1.1,1.5-3.2,1.8-4.7.6-3.6-2.8-6.7-6.2-9.2-10.3-9.7,12.2-25.4,14.7-40.8,14.7Z" fill="#062d36"/>
    <g>
      <path d="M192.6,255c-10.2,0-18.5-8.3-18.5-18.5s8.3-18.5,18.5-18.5,18.5,8.3,18.5,18.5-8.3,18.5-18.5,18.5ZM192.6,224.7c-6.5,0-11.8,5.3-11.8,11.8s5.3,11.8,11.8,11.8,11.8-5.3,11.8-11.8-5.3-11.8-11.8-11.8Z" fill="#062d36"/>
      <path d="M192.6,224.7c-1.9,0-3.4-1.5-3.4-3.4v-35.3c0-1.9,1.5-3.4,3.4-3.4s3.4,1.5,3.4,3.4v35.3c0,1.9-1.5,3.4-3.4,3.4Z" fill="#062d36"/>
    </g>
    <path d="M114.5,270.4h-8c-1.9,0-3.4-1.5-3.4-3.4s1.5-3.4,3.4-3.4h4.6v-18.9c0-10.4-8.5-18.9-18.9-18.9s-18.9,8.5-18.9,18.9v18.9h4.6c1.9,0,3.4,1.5,3.4,3.4s-1.5,3.4-3.4,3.4h-8c-1.9,0-3.4-1.5-3.4-3.4v-22.3c0-14.1,11.5-25.7,25.7-25.7s25.7,11.5,25.7,25.7v22.3c0,1.9-1.5,3.4-3.4,3.4Z" fill="#062d36"/>
    <path d="M92.2,225.8c-1.9,0-3.4-1.5-3.4-3.4v-37.4c0-1.9,1.5-3.4,3.4-3.4s3.4,1.5,3.4,3.4v37.4c0,1.9-1.5,3.4-3.4,3.4Z" fill="#062d36"/>
  </g>
  <path d="M229.2,79.8c-1.3,0-2.5-.8-3.1-2l-10.6-23.4-21.2-8.4c-1.3-.5-2.1-1.7-2.1-3.1s.8-2.6,2.1-3.1l21.7-8.9,10.1-22.9c.5-1.2,1.7-2,3.1-2h0c1.3,0,2.6.8,3.1,2l9.5,22.2,22.1,7.4c1.3.4,2.2,1.6,2.3,2.9,0,1.4-.6,2.6-1.8,3.2l-22.3,11.4-9.7,22.7c-.5,1.2-1.7,2-3.1,2h0ZM204.6,42.7l14.7,5.8c.8.3,1.5.9,1.8,1.7l8,17.7,7.2-16.7c.3-.7.9-1.3,1.6-1.7l16.2-8.3-15.9-5.4c-.9-.3-1.7-1-2-1.9l-7-16.5-7.5,17.1c-.4.8-1,1.4-1.8,1.8l-15.2,6.2Z" fill="#1bc5d9"/>
</svg>