<?xml version="1.0" encoding="UTF-8"?>
<svg id="Layer_1" xmlns="http://www.w3.org/2000/svg" version="1.1" viewBox="0 0 288 288">
  <!-- Generator: Adobe Illustrator 29.8.1, SVG Export Plug-In . SVG Version: 2.1.1 Build 2)  -->
  <path d="M76.9,284h-19.1c-5.3,0-9.6-3.9-9.6-8.7v-104.2c0-4.8,4.3-8.7,9.6-8.7h19.1c5.3,0,9.6,3.9,9.6,8.7v104.2c0,4.8-4.3,8.7-9.6,8.7ZM57.8,168.6c-1.5,0-2.7,1.1-2.7,2.4v104.2c0,1.3,1.2,2.4,2.7,2.4h19.1c1.5,0,2.7-1.1,2.7-2.4v-104.2c0-1.3-1.2-2.4-2.7-2.4h-19.1Z" fill="#062d36"/>
  <path d="M129.4,284h-19.1c-5.3,0-9.6-3.9-9.6-8.7v-136c0-4.8,4.3-8.7,9.6-8.7h19.1c5.3,0,9.6,3.9,9.6,8.7v136c0,4.8-4.3,8.7-9.6,8.7ZM110.3,136.8c-1.5,0-2.7,1.1-2.7,2.4v136c0,1.3,1.2,2.4,2.7,2.4h19.1c1.5,0,2.7-1.1,2.7-2.4v-136c0-1.3-1.2-2.4-2.7-2.4h-19.1Z" fill="#062d36"/>
  <path d="M181.9,284h-19.1c-5.3,0-9.6-3.9-9.6-8.7V114.4c0-4.8,4.3-8.7,9.6-8.7h19.1c5.3,0,9.6,3.9,9.6,8.7v160.8c0,4.8-4.3,8.7-9.6,8.7ZM162.8,112c-1.5,0-2.7,1.1-2.7,2.4v160.8c0,1.3,1.2,2.4,2.7,2.4h19.1c1.5,0,2.7-1.1,2.7-2.4V114.4c0-1.3-1.2-2.4-2.7-2.4h-19.1Z" fill="#062d36"/>
  <path d="M39.4,138.1c-1.6,0-3.1-.9-3.7-2.3-.7-1.8.3-3.8,2.3-4.5.6-.2,59.7-19.8,114.3-49.8C206.6,51.7,237.6,11.3,237.9,10.9c1.2-1.6,3.6-2,5.4-.9,1.8,1.1,2.2,3.2,1,4.8-1.3,1.7-32.2,42-87.9,72.6-55.3,30.4-115.1,50.2-115.7,50.4-.4.1-.9.2-1.3.2Z" fill="#1bc5d9"/>
  <path d="M221.7,14.2" fill="none" stroke="#1bc5d9" stroke-linecap="round" stroke-linejoin="round" stroke-width="11"/>
  <path d="M234.4,284h-19.1c-5.3,0-9.6-4.6-9.6-10.2V86.7c0-5.6,4.3-10.2,9.6-10.2h19.1c5.3,0,9.6,4.6,9.6,10.2v187.1c0,5.6-4.3,10.2-9.6,10.2ZM215.3,83.8c-1.5,0-2.7,1.3-2.7,2.8v187.1c0,1.6,1.2,2.8,2.7,2.8h19.1c1.5,0,2.7-1.3,2.7-2.8V86.7c0-1.6-1.2-2.8-2.7-2.8h-19.1Z" fill="#062d36"/>
</svg>