<?xml version="1.0" encoding="UTF-8"?>
<svg id="Layer_1" xmlns="http://www.w3.org/2000/svg" version="1.1" viewBox="0 0 288 288">
  <!-- Generator: Adobe Illustrator 29.8.1, SVG Export Plug-In . SVG Version: 2.1.1 Build 2)  -->
  <path d="M144,179c-1.1,0-2.1-.3-3.1-.9l-22-14.5c-19.3-12.7-30.8-34-30.8-57.1v-47.2c0-2.1,1.1-4,3-5,28.8-15.3,60-17.3,90.3-5.9,2.9,1.1,4.4,4.3,3.3,7.2-1.1,2.9-4.3,4.4-7.2,3.3-26.1-9.9-53-8.6-78.1,3.8v43.8c0,19.3,9.6,37.1,25.7,47.7l18.9,12.4,18.9-12.4c16.1-10.6,25.7-28.4,25.7-47.7v-22.8c0-3.1,2.5-5.6,5.6-5.6s5.6,2.5,5.6,5.6v22.8c0,23.1-11.5,44.4-30.8,57.1l-22,14.5c-.9.6-2,.9-3.1.9Z" fill="#1bc5d9"/>
  <path d="M141.5,126.3c-.8,0-1.5-.3-2.1-.9l-14.7-16c-1-1.1-1-2.9.2-4,1.1-1,2.9-1,4,.2l12.3,13.5,20.8-29.2c.9-1.3,2.7-1.6,3.9-.7,1.3.9,1.6,2.7.7,3.9l-22.8,32c-.5.7-1.3,1.1-2.1,1.2,0,0-.1,0-.2,0Z" fill="#062d36"/>
  <g>
    <path d="M235.2,271.9H52.8c-6.2,0-11.2-5-11.2-11.2V27.2c0-6.2,5-11.2,11.2-11.2h125.9c3.1,0,6,1.2,8.1,3.4l56.2,56.2c2.2,2.2,3.4,5.1,3.4,8.1v177c0,6.2-5,11.2-11.2,11.2ZM52.8,21.7c-3.1,0-5.6,2.5-5.6,5.6v233.5c0,3.1,2.5,5.6,5.6,5.6h182.5c3.1,0,5.6-2.5,5.6-5.6V83.8c0-1.6-.6-3-1.7-4.2l-56.2-56.2c-1.1-1.1-2.6-1.7-4.2-1.7H52.8Z" fill="#062d36"/>
    <g>
      <path d="M84.9,235.7h-10.7c-1.6,0-2.8-1.3-2.8-2.8s1.3-2.8,2.8-2.8h10.7c1.6,0,2.8,1.3,2.8,2.8s-1.3,2.8-2.8,2.8Z" fill="#062d36"/>
      <path d="M84.9,202h-10.7c-1.6,0-2.8-1.3-2.8-2.8s1.3-2.8,2.8-2.8h10.7c1.6,0,2.8,1.3,2.8,2.8s-1.3,2.8-2.8,2.8Z" fill="#062d36"/>
      <path d="M213.8,202h-102.3c-1.6,0-2.8-1.3-2.8-2.8s1.3-2.8,2.8-2.8h102.3c1.6,0,2.8,1.3,2.8,2.8s-1.3,2.8-2.8,2.8Z" fill="#062d36"/>
      <path d="M213.8,235.7h-102.3c-1.6,0-2.8-1.3-2.8-2.8s1.3-2.8,2.8-2.8h102.3c1.6,0,2.8,1.3,2.8,2.8s-1.3,2.8-2.8,2.8Z" fill="#062d36"/>
    </g>
    <path d="M241.4,83h-51.5c-5.8,0-10.4-4.7-10.4-10.4V20.7c0-1.6,1.3-2.8,2.8-2.8s2.8,1.3,2.8,2.8v51.8c0,2.7,2.2,4.8,4.8,4.8h51.5c1.6,0,2.8,1.3,2.8,2.8s-1.3,2.8-2.8,2.8Z" fill="#062d36"/>
  </g>
</svg>