<?xml version="1.0" encoding="UTF-8"?>
<svg id="Layer_1" xmlns="http://www.w3.org/2000/svg" version="1.1" viewBox="0 0 288 288">
  <!-- Generator: Adobe Illustrator 29.8.1, SVG Export Plug-In . SVG Version: 2.1.1 Build 2)  -->
  <g>
    <path d="M125.5,177.1h-46.6c-1.9,0-3.5-1.6-3.5-3.5v-68.4c0-1.9,1.6-3.5,3.5-3.5h46.6c1.9,0,3.5,1.6,3.5,3.5v68.4c0,1.9-1.6,3.5-3.5,3.5ZM82.3,170.2h39.7v-61.4h-39.7v61.4Z" fill="#062d36"/>
    <path d="M214.8,208.2c-.4,0-.8,0-1.1-.2l-89.3-31.1c-1.8-.6-2.8-2.6-2.1-4.4.6-1.8,2.6-2.8,4.4-2.1l84.7,29.5v-120.8l-84.7,29.5c-1.8.6-3.8-.3-4.4-2.1-.6-1.8.3-3.8,2.1-4.4l89.3-31.1c1.1-.4,2.2-.2,3.2.4.9.7,1.5,1.7,1.5,2.8v130.5c0,1.1-.5,2.2-1.5,2.8-.6.4-1.3.6-2,.6Z" fill="#062d36"/>
    <path d="M187,197.6c-1.9,0-3.5-1.6-3.5-3.5v-108.8c0-1.9,1.6-3.5,3.5-3.5s3.5,1.6,3.5,3.5v108.8c0,1.9-1.6,3.5-3.5,3.5Z" fill="#062d36"/>
    <path d="M109.6,244.5c-10.7,0-19.4-8.7-19.4-19.4v-51.5c0-1.9,1.6-3.5,3.5-3.5s3.5,1.6,3.5,3.5v51.5c0,6.9,5.6,12.5,12.5,12.5s12.5-5.6,12.5-12.5v-51.5c0-1.9,1.6-3.5,3.5-3.5s3.5,1.6,3.5,3.5v51.5c0,10.7-8.7,19.4-19.4,19.4Z" fill="#062d36"/>
    <path d="M78.9,165.3h-12.3c-12.7,0-23-10.3-23-23v-5.7c0-12.7,10.3-23,23-23h12.3c1.9,0,3.5,1.6,3.5,3.5v44.8c0,1.9-1.6,3.5-3.5,3.5ZM66.5,120.5c-8.8,0-16,7.2-16,16v5.7c0,8.8,7.2,16,16,16h8.9v-37.8h-8.9Z" fill="#062d36"/>
    <path d="M225.1,158.8h-10.3c-1.9,0-3.5-1.6-3.5-3.5v-31.9c0-1.9,1.6-3.5,3.5-3.5h10.3c10.7,0,19.4,8.7,19.4,19.4s-8.7,19.4-19.4,19.4ZM218.3,151.9h6.8c6.9,0,12.5-5.6,12.5-12.5s-5.6-12.5-12.5-12.5h-6.8v24.9Z" fill="#062d36"/>
  </g>
  <path d="M144,282.3c-36.9,0-71.7-14.4-97.8-40.5-26.1-26.1-40.5-60.9-40.5-97.8s14.4-71.7,40.5-97.8C72.3,20.1,107.1,5.7,144,5.7s71.7,14.4,97.8,40.5c26.1,26.1,40.5,60.9,40.5,97.8s-14.4,71.7-40.5,97.8c-26.1,26.1-60.9,40.5-97.8,40.5ZM144,19.6c-68.6,0-124.4,55.8-124.4,124.4s55.8,124.4,124.4,124.4,124.4-55.8,124.4-124.4S212.6,19.6,144,19.6Z" fill="#2dc0d4"/>
  <path d="M65.2,256.1c-1.4,0-2.8-.4-4.1-1.3-3.1-2.2-3.8-6.6-1.6-9.7L213.5,32.1c2.2-3.1,6.6-3.8,9.7-1.6,3.1,2.2,3.8,6.6,1.6,9.7L70.8,253.2c-1.4,1.9-3.5,2.9-5.6,2.9Z" fill="#2dc0d4"/>
</svg>