<?xml version="1.0" encoding="UTF-8"?>
<svg id="Layer_1" xmlns="http://www.w3.org/2000/svg" version="1.1" viewBox="0 0 288 288">
  <!-- Generator: Adobe Illustrator 29.8.1, SVG Export Plug-In . SVG Version: 2.1.1 Build 2)  -->
  <g>
    <path d="M104.4,178.2c-1.4,0-2.6-.9-3-2.3-.4-1.7.5-3.4,2.2-3.8l5.7-1.5,20.6-36,10.7-40c.4-1.7,2.2-2.7,3.8-2.2,18.1,4.8,27.2,17.8,25.1,35.6l-4,33.9c-.2,1.7-1.7,2.9-3.5,2.7-1.7-.2-2.9-1.8-2.7-3.5l4-33.9c1.6-13.8-4.4-23.4-17.5-28l-10,37.3c0,.3-.2.5-.3.7l-21.5,37.5c-.4.7-1.1,1.2-1.9,1.5l-6.9,1.9c-.3,0-.5.1-.8.1Z" fill="#062d36"/>
    <path d="M101.9,281.5h-51.1c-1.7,0-3.1-1.4-3.1-3.1v-113.5c0-1.7,1.4-3.1,3.1-3.1h51.1c1.7,0,3.1,1.4,3.1,3.1v113.5c0,1.7-1.4,3.1-3.1,3.1ZM53.9,275.2h44.8v-107.3h-44.8v107.3Z" fill="#062d36"/>
    <path d="M211.5,281.5h-66.7c-11.6,0-17-3.3-22.3-6.5-4.6-2.8-8.9-5.5-18.1-5.9-1.7,0-3.1-1.5-3-3.3,0-1.7,1.5-3.1,3.3-3,10.8.5,16.3,3.8,21.1,6.8,4.9,3,9.2,5.6,19,5.6h66.7c6.1,0,11.1-5,11.1-11.1s-5-11.1-11.1-11.1-3.1-1.4-3.1-3.1,1.4-3.1,3.1-3.1h8.5c6.1,0,11.1-5,11.1-11.1s-5-11.1-11.1-11.1-3.1-1.4-3.1-3.1,1.4-3.1,3.1-3.1h8.5c6.1,0,11.1-5,11.1-11.1s-5-11.1-11.1-11.1h-11.4c-1.7,0-3.1-1.4-3.1-3.1s1.4-3.1,3.1-3.1c6.1,0,11.1-5,11.1-11.1s-5-11.1-11.1-11.1h-64.4c-1.7,0-3.1-1.4-3.1-3.1s1.4-3.1,3.1-3.1h64.4c9.5,0,17.3,7.8,17.3,17.3s-1.5,8.2-4.1,11.2c8.7.9,15.4,8.3,15.4,17.2s-5.5,14.8-13,16.8c2.8,3.1,4.5,7.1,4.5,11.6,0,8.1-5.5,14.8-13,16.8,2.8,3.1,4.5,7.1,4.5,11.6,0,9.5-7.8,17.3-17.3,17.3Z" fill="#062d36"/>
  </g>
  <g>
    <path d="M163.3,78.4c-.8,0-1.6-.2-2.4-.5l-16.9-7.1-16.9,7.1c-2,.9-4.3.6-6.1-.7-1.8-1.3-2.7-3.4-2.6-5.6l1.6-18.2-12-13.8c-1.4-1.7-1.9-3.9-1.2-6,.7-2.1,2.4-3.7,4.5-4.2l17.8-4.1,9.5-15.7c1.1-1.9,3.2-3,5.3-3h0c2.2,0,4.2,1.1,5.3,3l9.5,15.7,17.8,4.1c2.1.5,3.8,2.1,4.5,4.2.7,2.1.2,4.4-1.2,6l-12,13.8,1.6,18.2c.2,2.2-.8,4.3-2.6,5.6-1.1.8-2.4,1.2-3.7,1.2ZM144,57.7c.8,0,1.7.2,2.4.5l9.8,4.1-.9-10.6c-.1-1.7.4-3.3,1.5-4.6l6.9-8-10.3-2.4c-1.6-.4-3.1-1.4-3.9-2.9l-5.5-9.1-5.5,9.1c-.9,1.4-2.3,2.5-3.9,2.9l-10.3,2.4,6.9,8c1.1,1.3,1.6,2.9,1.5,4.6l-.9,10.6,9.8-4.1c.8-.3,1.6-.5,2.4-.5Z" fill="#1bc5d9"/>
    <path d="M42.4,126.8c-1.3,0-2.6-.4-3.7-1.2-1.8-1.3-2.7-3.4-2.6-5.6l1.6-18.2-12-13.8c-1.4-1.7-1.9-3.9-1.2-6,.7-2.1,2.4-3.7,4.5-4.2l17.8-4.1,9.5-15.7c1.1-1.9,3.2-3,5.3-3s4.2,1.1,5.3,3l9.5,15.7,17.8,4.1c2.1.5,3.8,2.1,4.5,4.2.7,2.1.2,4.4-1.2,6l-12,13.8,1.6,18.2c.2,2.2-.8,4.3-2.6,5.6s-4.1,1.6-6.1.7l-16.9-7.1-16.9,7.1c-.8.3-1.6.5-2.4.5ZM42,87.6l6.9,8c1.1,1.3,1.6,2.9,1.5,4.6l-.9,10.6,9.8-4.1c1.6-.7,3.3-.7,4.9,0l9.8,4.1-.9-10.6c-.1-1.7.4-3.3,1.5-4.6l6.9-8-10.3-2.4c-1.6-.4-3.1-1.4-3.9-2.9l-5.5-9.1-5.5,9.1c-.9,1.4-2.3,2.5-3.9,2.9l-10.3,2.4Z" fill="#1bc5d9"/>
    <path d="M245.6,126.8c-.8,0-1.6-.2-2.4-.5l-16.9-7.1-16.9,7.1c-2,.9-4.3.6-6.1-.7-1.8-1.3-2.7-3.4-2.6-5.6l1.6-18.2-12-13.8c-1.4-1.7-1.9-3.9-1.2-6,.7-2.1,2.4-3.7,4.5-4.2l17.8-4.1,9.5-15.7c1.1-1.9,3.2-3,5.3-3h0c2.2,0,4.2,1.1,5.3,3l9.5,15.7,17.8,4.1c2.1.5,3.8,2.1,4.5,4.2.7,2.1.2,4.4-1.2,6l-12,13.8,1.6,18.2c.2,2.2-.8,4.3-2.6,5.6-1.1.8-2.4,1.2-3.7,1.2ZM206.6,87.6l6.9,8c1.1,1.3,1.6,2.9,1.5,4.6l-.9,10.6,9.8-4.1c1.6-.7,3.3-.7,4.9,0l9.8,4.1-.9-10.6c-.1-1.7.4-3.3,1.5-4.6l6.9-8-10.3-2.4c-1.6-.4-3.1-1.4-3.9-2.9l-5.5-9.1-5.5,9.1c-.9,1.4-2.3,2.5-3.9,2.9l-10.3,2.4Z" fill="#1bc5d9"/>
  </g>
</svg>